<?xml version="1.0" encoding="UTF-8"?>
<svg id="Capa_1" data-name="Capa 1" xmlns="http://www.w3.org/2000/svg" xmlns:xlink="http://www.w3.org/1999/xlink" viewBox="0 0 1740.88 483">
  <defs>
    <style>
      .cls-1 {
        clip-path: url(#clippath);
      }

      .cls-2 {
        fill: none;
      }

      .cls-2, .cls-3, .cls-4, .cls-5 {
        stroke-width: 0px;
      }

      .cls-3 {
        fill: #fdbd00;
      }

      .cls-4 {
        fill: #00376a;
      }

      .cls-5 {
        fill: #fff;
      }
    </style>
    <clipPath id="clippath">
      <rect class="cls-2" x="63" width="1622" height="483"/>
    </clipPath>
  </defs>
  <g class="cls-1">
    <g>
      <path class="cls-3" d="M1353.98,431.18c-38.39,10.54-78.03,15.83-117.85,15.72-105.91,0-228.28-53.3-228.28-203.02,0-137.83,96.8-206.42,227.75-206.42,40.46,0,79.71,9.01,117.85,20.39l-8.52,85.63c-31.52-18.11-67.25-27.69-103.64-27.78-75.13,0-124.11,54.45-124.11,128.18,0,77.56,55.24,124.72,132.63,124.72,33.99-.73,67.57-7.64,99.07-20.39l5.1,82.96h0ZM741.06,44.22h129.9l153.15,395.87h-116.11l-29.62-84.53h-148.94l-31.57,84.53h-107.59L741.06,44.22ZM804.93,125.92l-51.24,154.8h99.65l-48.4-154.8h-.01ZM1391.48,429.87c38.45,11.33,78.33,17.06,118.43,17.03,88.28,0,174.77-27.77,174.77-130.44,0-142.91-187.87-99.57-187.87-163.87,0-34.64,44.4-36.68,71.18-36.68,30.39-.27,60.49,5.93,88.28,18.18l6.84-81.65c-33.19-10.18-67.76-15.16-102.49-14.78-79.71,0-173.09,26.2-173.09,121.37,0,144.06,187.87,97.53,187.87,171.26,0,31.76-31.88,38.57-65.5,38.57-38.03.3-75.55-8.7-109.27-26.2l-9.15,87.2h0Z"/>
      <path class="cls-5" d="M304.26.46L62.79,241.94l241.48,241.48,241.48-241.48L304.26.46Z"/>
      <path class="cls-3" d="M317.69,160.94v135.12h.05l121.7-121.71L304.26,39.16l-121.78,121.78h135.21Z"/>
      <path class="cls-4" d="M290.33,323.42v-135.12h-.03l-121.23,121.23,135.19,135.19,121.3-121.3h-135.23Z"/>
    </g>
  </g>
</svg>